<svg xmlns="http://www.w3.org/2000/svg" xmlns:xlink="http://www.w3.org/1999/xlink" width="1200" zoomAndPan="magnify" viewBox="0 0 900 374.999991" height="500" preserveAspectRatio="xMidYMid meet" version="1.0"><defs><g/></defs><g fill="#ffffff" fill-opacity="1"><g transform="translate(180.011927, 202.750292)"><g><path d="M 53.265625 1.890625 C 39.171875 1.890625 28.210938 -1.945312 20.390625 -9.625 C 12.578125 -17.300781 8.671875 -28.191406 8.671875 -42.296875 L 8.671875 -94.890625 L 35.515625 -94.890625 L 35.515625 -43.109375 C 35.515625 -27.921875 41.523438 -20.328125 53.546875 -20.328125 C 65.472656 -20.328125 71.4375 -27.921875 71.4375 -43.109375 L 71.4375 -94.890625 L 97.859375 -94.890625 L 97.859375 -42.296875 C 97.859375 -28.191406 93.953125 -17.300781 86.140625 -9.625 C 78.328125 -1.945312 67.367188 1.890625 53.265625 1.890625 Z M 53.265625 1.890625 "/></g></g></g><g fill="#ffffff" fill-opacity="1"><g transform="translate(300.106034, 202.750292)"><g><path d="M 99.765625 -94.890625 L 99.765625 0 L 77.671875 0 L 35.78125 -50.5625 L 35.78125 0 L 9.484375 0 L 9.484375 -94.890625 L 31.578125 -94.890625 L 73.46875 -44.328125 L 73.46875 -94.890625 Z M 99.765625 -94.890625 "/></g></g></g><g fill="#ffffff" fill-opacity="1"><g transform="translate(422.911035, 202.750292)"><g><path d="M 9.484375 -94.890625 L 36.328125 -94.890625 L 36.328125 0 L 9.484375 0 Z M 9.484375 -94.890625 "/></g></g></g><g fill="#ffffff" fill-opacity="1"><g transform="translate(482.416574, 202.750292)"><g><path d="M 57.34375 1.890625 C 47.3125 1.890625 38.296875 -0.226562 30.296875 -4.46875 C 22.296875 -8.71875 16.015625 -14.59375 11.453125 -22.09375 C 6.890625 -29.59375 4.609375 -38.039062 4.609375 -47.4375 C 4.609375 -56.832031 6.890625 -65.28125 11.453125 -72.78125 C 16.015625 -80.289062 22.296875 -86.164062 30.296875 -90.40625 C 38.296875 -94.65625 47.3125 -96.78125 57.34375 -96.78125 C 67.363281 -96.78125 76.375 -94.65625 84.375 -90.40625 C 92.375 -86.164062 98.65625 -80.289062 103.21875 -72.78125 C 107.78125 -65.28125 110.0625 -56.832031 110.0625 -47.4375 C 110.0625 -38.039062 107.78125 -29.59375 103.21875 -22.09375 C 98.65625 -14.59375 92.375 -8.71875 84.375 -4.46875 C 76.375 -0.226562 67.363281 1.890625 57.34375 1.890625 Z M 57.34375 -20.328125 C 62.125 -20.328125 66.457031 -21.457031 70.34375 -23.71875 C 74.226562 -25.976562 77.300781 -29.160156 79.5625 -33.265625 C 81.820312 -37.378906 82.953125 -42.101562 82.953125 -47.4375 C 82.953125 -52.769531 81.820312 -57.492188 79.5625 -61.609375 C 77.300781 -65.722656 74.226562 -68.90625 70.34375 -71.15625 C 66.457031 -73.414062 62.125 -74.546875 57.34375 -74.546875 C 52.550781 -74.546875 48.210938 -73.414062 44.328125 -71.15625 C 40.441406 -68.90625 37.367188 -65.722656 35.109375 -61.609375 C 32.847656 -57.492188 31.71875 -52.769531 31.71875 -47.4375 C 31.71875 -42.101562 32.847656 -37.378906 35.109375 -33.265625 C 37.367188 -29.160156 40.441406 -25.976562 44.328125 -23.71875 C 48.210938 -21.457031 52.550781 -20.328125 57.34375 -20.328125 Z M 57.34375 -20.328125 "/></g></g></g><g fill="#ffffff" fill-opacity="1"><g transform="translate(610.6434, 202.750292)"><g><path d="M 99.765625 -94.890625 L 99.765625 0 L 77.671875 0 L 35.78125 -50.5625 L 35.78125 0 L 9.484375 0 L 9.484375 -94.890625 L 31.578125 -94.890625 L 73.46875 -44.328125 L 73.46875 -94.890625 Z M 99.765625 -94.890625 "/></g></g></g><g fill="#ffffff" fill-opacity="1"><g transform="translate(327.94761, 283.238103)"><g><path d="M 28.203125 -18.34375 C 30.546875 -17.84375 32.351562 -16.835938 33.625 -15.328125 C 34.894531 -13.816406 35.53125 -11.875 35.53125 -9.5 C 35.53125 -6.457031 34.398438 -4.113281 32.140625 -2.46875 C 29.890625 -0.820312 26.5625 0 22.15625 0 L 5.796875 0 L 5.796875 -35.578125 L 21.140625 -35.578125 C 25.109375 -35.578125 28.179688 -34.78125 30.359375 -33.1875 C 32.546875 -31.59375 33.640625 -29.34375 33.640625 -26.4375 C 33.640625 -24.46875 33.15625 -22.796875 32.1875 -21.421875 C 31.226562 -20.046875 29.898438 -19.019531 28.203125 -18.34375 Z M 9.5625 -32.484375 L 9.5625 -19.5625 L 20.890625 -19.5625 C 23.765625 -19.5625 25.984375 -20.113281 27.546875 -21.21875 C 29.109375 -22.320312 29.890625 -23.925781 29.890625 -26.03125 C 29.890625 -28.125 29.109375 -29.722656 27.546875 -30.828125 C 25.984375 -31.929688 23.765625 -32.484375 20.890625 -32.484375 Z M 22.109375 -3.09375 C 25.296875 -3.09375 27.703125 -3.632812 29.328125 -4.71875 C 30.953125 -5.8125 31.765625 -7.507812 31.765625 -9.8125 C 31.765625 -14.25 28.546875 -16.46875 22.109375 -16.46875 L 9.5625 -16.46875 L 9.5625 -3.09375 Z M 22.109375 -3.09375 "/></g></g></g><g fill="#ffffff" fill-opacity="1"><g transform="translate(396.879006, 283.238103)"><g><path d="M 28.109375 -9.5 L 8.28125 -9.5 L 4.015625 0 L 0.109375 0 L 16.359375 -35.578125 L 20.078125 -35.578125 L 36.34375 0 L 32.375 0 Z M 26.734375 -12.546875 L 18.203125 -31.671875 L 9.65625 -12.546875 Z M 26.734375 -12.546875 "/></g></g></g><g fill="#ffffff" fill-opacity="1"><g transform="translate(463.929516, 283.238103)"><g><path d="M 35.53125 -35.578125 L 35.53125 0 L 32.421875 0 L 9.5625 -28.875 L 9.5625 0 L 5.796875 0 L 5.796875 -35.578125 L 8.890625 -35.578125 L 31.8125 -6.703125 L 31.8125 -35.578125 Z M 35.53125 -35.578125 "/></g></g></g><g fill="#ffffff" fill-opacity="1"><g transform="translate(535.860123, 283.238103)"><g><path d="M 16.828125 -16.71875 L 9.5625 -9.359375 L 9.5625 0 L 5.796875 0 L 5.796875 -35.578125 L 9.5625 -35.578125 L 9.5625 -14.078125 L 30.453125 -35.578125 L 34.765625 -35.578125 L 19.359375 -19.46875 L 35.828125 0 L 31.359375 0 Z M 16.828125 -16.71875 "/></g></g></g></svg>