<svg xmlns="http://www.w3.org/2000/svg" xmlns:xlink="http://www.w3.org/1999/xlink" width="1200" zoomAndPan="magnify" viewBox="0 0 900 374.999991" height="500" preserveAspectRatio="xMidYMid meet" version="1.0"><defs><g/></defs><g fill="#ffffff" fill-opacity="1"><g transform="translate(24.426698, 210.815444)"><g><path d="M 36.09375 1.28125 C 26.539062 1.28125 19.113281 -1.316406 13.8125 -6.515625 C 8.519531 -11.722656 5.875 -19.101562 5.875 -28.65625 L 5.875 -64.296875 L 24.0625 -64.296875 L 24.0625 -29.21875 C 24.0625 -18.925781 28.132812 -13.78125 36.28125 -13.78125 C 44.363281 -13.78125 48.40625 -18.925781 48.40625 -29.21875 L 48.40625 -64.296875 L 66.328125 -64.296875 L 66.328125 -28.65625 C 66.328125 -19.101562 63.675781 -11.722656 58.375 -6.515625 C 53.082031 -1.316406 45.65625 1.28125 36.09375 1.28125 Z M 36.09375 1.28125 "/></g></g></g><g fill="#ffffff" fill-opacity="1"><g transform="translate(105.818798, 210.815444)"><g><path d="M 67.609375 -64.296875 L 67.609375 0 L 52.640625 0 L 24.25 -34.265625 L 24.25 0 L 6.4375 0 L 6.4375 -64.296875 L 21.40625 -64.296875 L 49.78125 -30.03125 L 49.78125 -64.296875 Z M 67.609375 -64.296875 "/></g></g></g><g fill="#ffffff" fill-opacity="1"><g transform="translate(189.048169, 210.815444)"><g><path d="M 6.4375 -64.296875 L 24.625 -64.296875 L 24.625 0 L 6.4375 0 Z M 6.4375 -64.296875 "/></g></g></g><g fill="#ffffff" fill-opacity="1"><g transform="translate(229.377215, 210.815444)"><g><path d="M 38.859375 1.28125 C 32.054688 1.28125 25.945312 -0.15625 20.53125 -3.03125 C 15.113281 -5.90625 10.859375 -9.882812 7.765625 -14.96875 C 4.671875 -20.050781 3.125 -25.78125 3.125 -32.15625 C 3.125 -38.519531 4.671875 -44.242188 7.765625 -49.328125 C 10.859375 -54.410156 15.113281 -58.390625 20.53125 -61.265625 C 25.945312 -64.148438 32.054688 -65.59375 38.859375 -65.59375 C 45.648438 -65.59375 51.753906 -64.148438 57.171875 -61.265625 C 62.597656 -58.390625 66.859375 -54.410156 69.953125 -49.328125 C 73.046875 -44.242188 74.59375 -38.519531 74.59375 -32.15625 C 74.59375 -25.78125 73.046875 -20.050781 69.953125 -14.96875 C 66.859375 -9.882812 62.597656 -5.90625 57.171875 -3.03125 C 51.753906 -0.15625 45.648438 1.28125 38.859375 1.28125 Z M 38.859375 -13.78125 C 42.097656 -13.78125 45.035156 -14.546875 47.671875 -16.078125 C 50.304688 -17.609375 52.390625 -19.765625 53.921875 -22.546875 C 55.453125 -25.335938 56.21875 -28.539062 56.21875 -32.15625 C 56.21875 -35.769531 55.453125 -38.96875 53.921875 -41.75 C 52.390625 -44.53125 50.304688 -46.6875 47.671875 -48.21875 C 45.035156 -49.75 42.097656 -50.515625 38.859375 -50.515625 C 35.609375 -50.515625 32.664062 -49.75 30.03125 -48.21875 C 27.40625 -46.6875 25.328125 -44.53125 23.796875 -41.75 C 22.265625 -38.96875 21.5 -35.769531 21.5 -32.15625 C 21.5 -28.539062 22.265625 -25.335938 23.796875 -22.546875 C 25.328125 -19.765625 27.40625 -17.609375 30.03125 -16.078125 C 32.664062 -14.546875 35.609375 -13.78125 38.859375 -13.78125 Z M 38.859375 -13.78125 "/></g></g></g><g fill="#ffffff" fill-opacity="1"><g transform="translate(316.281151, 210.815444)"><g><path d="M 67.609375 -64.296875 L 67.609375 0 L 52.640625 0 L 24.25 -34.265625 L 24.25 0 L 6.4375 0 L 6.4375 -64.296875 L 21.40625 -64.296875 L 49.78125 -30.03125 L 49.78125 -64.296875 Z M 67.609375 -64.296875 "/></g></g></g><g fill="#ffffff" fill-opacity="1"><g transform="translate(437.515613, 212.818932)"><g><path d="M 51 -33.171875 C 55.226562 -32.253906 58.488281 -30.429688 60.78125 -27.703125 C 63.082031 -24.972656 64.234375 -21.46875 64.234375 -17.1875 C 64.234375 -11.664062 62.195312 -7.421875 58.125 -4.453125 C 54.050781 -1.484375 48.03125 0 40.0625 0 L 10.46875 0 L 10.46875 -64.328125 L 38.21875 -64.328125 C 45.394531 -64.328125 50.957031 -62.882812 54.90625 -60 C 58.851562 -57.125 60.828125 -53.050781 60.828125 -47.78125 C 60.828125 -44.226562 59.953125 -41.210938 58.203125 -38.734375 C 56.460938 -36.253906 54.0625 -34.398438 51 -33.171875 Z M 17.28125 -58.71875 L 17.28125 -35.375 L 37.765625 -35.375 C 42.972656 -35.375 46.984375 -36.367188 49.796875 -38.359375 C 52.617188 -40.347656 54.03125 -43.242188 54.03125 -47.046875 C 54.03125 -50.847656 52.617188 -53.742188 49.796875 -55.734375 C 46.984375 -57.722656 42.972656 -58.71875 37.765625 -58.71875 Z M 39.96875 -5.609375 C 45.726562 -5.609375 50.078125 -6.585938 53.015625 -8.546875 C 55.960938 -10.503906 57.4375 -13.566406 57.4375 -17.734375 C 57.4375 -25.753906 51.613281 -29.765625 39.96875 -29.765625 L 17.28125 -29.765625 L 17.28125 -5.609375 Z M 39.96875 -5.609375 "/></g></g></g><g fill="#ffffff" fill-opacity="1"><g transform="translate(562.121864, 212.818932)"><g><path d="M 50.8125 -17.1875 L 14.984375 -17.1875 L 7.265625 0 L 0.1875 0 L 29.59375 -64.328125 L 36.296875 -64.328125 L 65.703125 0 L 58.53125 0 Z M 48.328125 -22.703125 L 32.890625 -57.25 L 17.453125 -22.703125 Z M 48.328125 -22.703125 "/></g></g></g><g fill="#ffffff" fill-opacity="1"><g transform="translate(683.328303, 212.818932)"><g><path d="M 64.234375 -64.328125 L 64.234375 0 L 58.625 0 L 17.28125 -52.1875 L 17.28125 0 L 10.46875 0 L 10.46875 -64.328125 L 16.078125 -64.328125 L 57.53125 -12.125 L 57.53125 -64.328125 Z M 64.234375 -64.328125 "/></g></g></g><g fill="#ffffff" fill-opacity="1"><g transform="translate(813.355862, 212.818932)"><g><path d="M 30.421875 -30.234375 L 17.28125 -16.90625 L 17.28125 0 L 10.46875 0 L 10.46875 -64.328125 L 17.28125 -64.328125 L 17.28125 -25.453125 L 55.046875 -64.328125 L 62.859375 -64.328125 L 35.015625 -35.1875 L 64.78125 0 L 56.703125 0 Z M 30.421875 -30.234375 "/></g></g></g></svg>