<svg xmlns="http://www.w3.org/2000/svg" xmlns:xlink="http://www.w3.org/1999/xlink" width="500" zoomAndPan="magnify" viewBox="0 0 375 374.999991" height="500" preserveAspectRatio="xMidYMid meet" version="1.0"><defs><g/><clipPath id="af705dd48f"><path d="M 125 11.210938 L 243 11.210938 L 243 111 L 125 111 Z M 125 11.210938 " clip-rule="nonzero"/></clipPath><clipPath id="944ef314ed"><path d="M 238.378906 11.304688 C 246.699219 38.871094 156.285156 77.417969 125.632812 91.390625 L 125.816406 94.753906 C 126.132812 100.609375 128.257812 105.8125 131.738281 110.566406 C 224.648438 70.726562 254.1875 44.269531 238.378906 11.304688 Z M 238.378906 11.304688 " clip-rule="nonzero"/></clipPath><clipPath id="d3456b5352"><path d="M 134 31 L 251 31 L 251 128 L 134 128 Z M 134 31 " clip-rule="nonzero"/></clipPath><clipPath id="67a7829817"><path d="M 246.050781 35.367188 C 239.917969 67.378906 176.597656 97.085938 134.578125 114.28125 L 134.5625 114.289062 C 139.742188 119.085938 146.355469 123.441406 153.882812 127.605469 C 239.042969 90.183594 261.609375 63.027344 246.746094 31.335938 C 246.589844 32.703125 246.359375 34.050781 246.050781 35.367188 Z M 246.050781 35.367188 " clip-rule="evenodd"/></clipPath><clipPath id="d2c56c36c1"><path d="M 116 95 L 272 95 L 272 261 L 116 261 Z M 116 95 " clip-rule="nonzero"/></clipPath><clipPath id="eae0211efe"><path d="M 188.085938 175.464844 C 134.058594 152.796875 104.441406 126.941406 121.285156 95 C 124.683594 157.820312 300.734375 149.875 267.183594 260.152344 C 262.335938 211.191406 223.546875 193.816406 188.085938 175.464844 Z M 188.085938 175.464844 " clip-rule="evenodd"/></clipPath><clipPath id="192e965e6b"><path d="M 107 116 L 262 116 L 262 287.960938 L 107 287.960938 Z M 107 116 " clip-rule="nonzero"/></clipPath><clipPath id="a591e148fe"><path d="M 112.753906 116.714844 C 120.554688 185.9375 294.703125 180.710938 255.351562 287.582031 C 245.847656 191.609375 74.277344 189.691406 112.753906 116.714844 Z M 112.753906 116.714844 " clip-rule="evenodd"/></clipPath><clipPath id="f85f16797d"><path d="M 105.058594 202.304688 L 172 202.304688 L 172 279.554688 L 105.058594 279.554688 Z M 105.058594 202.304688 " clip-rule="nonzero"/></clipPath></defs><g clip-path="url(#af705dd48f)"><g clip-path="url(#944ef314ed)"><path fill="#ffffff" d="M 125.632812 11.304688 L 125.632812 110.566406 L 254.1875 110.566406 L 254.1875 11.304688 Z M 125.632812 11.304688 " fill-opacity="1" fill-rule="nonzero"/></g></g><g clip-path="url(#d3456b5352)"><g clip-path="url(#67a7829817)"><path fill="#ffffff" d="M 134.5625 31.335938 L 134.5625 127.605469 L 261.609375 127.605469 L 261.609375 31.335938 Z M 134.5625 31.335938 " fill-opacity="1" fill-rule="nonzero"/></g></g><g clip-path="url(#d2c56c36c1)"><g clip-path="url(#eae0211efe)"><path fill="#ffffff" d="M 104.441406 95 L 104.441406 260.152344 L 300.734375 260.152344 L 300.734375 95 Z M 104.441406 95 " fill-opacity="1" fill-rule="nonzero"/></g></g><g clip-path="url(#192e965e6b)"><g clip-path="url(#a591e148fe)"><path fill="#ffffff" d="M 74.277344 116.714844 L 74.277344 287.582031 L 294.703125 287.582031 L 294.703125 116.714844 Z M 74.277344 116.714844 " fill-opacity="1" fill-rule="nonzero"/></g></g><g clip-path="url(#f85f16797d)"><path fill="#ffffff" d="M 153.667969 272.644531 C 160.253906 272.644531 166.371094 270.648438 171.449219 267.230469 C 164.4375 274.617188 154.527344 279.226562 143.539062 279.226562 C 122.300781 279.226562 105.078125 262.007812 105.078125 240.765625 C 105.078125 219.523438 122.300781 202.308594 143.539062 202.308594 C 154.53125 202.308594 164.445312 206.917969 171.453125 214.3125 C 166.375 210.890625 160.253906 208.890625 153.667969 208.890625 C 136.0625 208.890625 121.792969 223.164062 121.792969 240.769531 C 121.792969 258.371094 136.0625 272.644531 153.667969 272.644531 Z M 153.667969 272.644531 " fill-opacity="1" fill-rule="nonzero"/></g><path fill="#ffffff" d="M 135.460938 236.070312 C 132.445312 239.597656 130.714844 243.785156 130.222656 248.066406 C 129.472656 240.933594 131.542969 233.515625 136.570312 227.632812 C 146.289062 216.261719 163.386719 214.917969 174.761719 224.636719 C 186.136719 234.359375 187.476562 251.457031 177.757812 262.832031 C 172.726562 268.71875 165.722656 271.917969 158.554688 272.285156 C 162.710938 271.132812 166.585938 268.769531 169.597656 265.242188 C 177.652344 255.816406 176.539062 241.644531 167.113281 233.585938 C 157.6875 225.53125 143.515625 226.644531 135.460938 236.070312 Z M 135.460938 236.070312 " fill-opacity="1" fill-rule="nonzero"/><path fill="#ffffff" d="M 135.835938 262.875 C 139.199219 267.332031 143.671875 270.449219 148.582031 272.136719 C 140.003906 271.171875 131.824219 266.820312 126.210938 259.386719 C 115.363281 245.023438 118.21875 224.582031 132.582031 213.734375 C 146.949219 202.882812 167.390625 205.738281 178.238281 220.105469 C 183.851562 227.539062 185.796875 236.601562 184.375 245.117188 C 184.097656 239.933594 182.320312 234.769531 178.957031 230.316406 C 169.96875 218.410156 153.023438 216.046875 141.117188 225.035156 C 129.210938 234.027344 126.847656 250.96875 135.835938 262.875 Z M 135.835938 262.875 " fill-opacity="1" fill-rule="nonzero"/><g fill="#ffffff" fill-opacity="1"><g transform="translate(94.922845, 330.961098)"><g><path d="M 18.265625 0.65625 C 13.429688 0.65625 9.671875 -0.660156 6.984375 -3.296875 C 4.304688 -5.929688 2.96875 -9.664062 2.96875 -14.5 L 2.96875 -32.546875 L 12.171875 -32.546875 L 12.171875 -14.78125 C 12.171875 -9.570312 14.234375 -6.96875 18.359375 -6.96875 C 22.453125 -6.96875 24.5 -9.570312 24.5 -14.78125 L 24.5 -32.546875 L 33.5625 -32.546875 L 33.5625 -14.5 C 33.5625 -9.664062 32.21875 -5.929688 29.53125 -3.296875 C 26.851562 -0.660156 23.097656 0.65625 18.265625 0.65625 Z M 18.265625 0.65625 "/></g></g></g><g fill="#ffffff" fill-opacity="1"><g transform="translate(136.102329, 330.961098)"><g><path d="M 34.21875 -32.546875 L 34.21875 0 L 26.640625 0 L 12.265625 -17.34375 L 12.265625 0 L 3.25 0 L 3.25 -32.546875 L 10.828125 -32.546875 L 25.1875 -15.203125 L 25.1875 -32.546875 Z M 34.21875 -32.546875 "/></g></g></g><g fill="#ffffff" fill-opacity="1"><g transform="translate(178.211361, 330.961098)"><g><path d="M 3.25 -32.546875 L 12.453125 -32.546875 L 12.453125 0 L 3.25 0 Z M 3.25 -32.546875 "/></g></g></g><g fill="#ffffff" fill-opacity="1"><g transform="translate(198.615421, 330.961098)"><g><path d="M 19.65625 0.65625 C 16.21875 0.65625 13.128906 -0.0703125 10.390625 -1.53125 C 7.648438 -2.988281 5.492188 -5.003906 3.921875 -7.578125 C 2.359375 -10.148438 1.578125 -13.046875 1.578125 -16.265625 C 1.578125 -19.492188 2.359375 -22.394531 3.921875 -24.96875 C 5.492188 -27.539062 7.648438 -29.550781 10.390625 -31 C 13.128906 -32.457031 16.21875 -33.1875 19.65625 -33.1875 C 23.101562 -33.1875 26.195312 -32.457031 28.9375 -31 C 31.675781 -29.550781 33.828125 -27.539062 35.390625 -24.96875 C 36.960938 -22.394531 37.75 -19.492188 37.75 -16.265625 C 37.75 -13.046875 36.960938 -10.148438 35.390625 -7.578125 C 33.828125 -5.003906 31.675781 -2.988281 28.9375 -1.53125 C 26.195312 -0.0703125 23.101562 0.65625 19.65625 0.65625 Z M 19.65625 -6.96875 C 21.300781 -6.96875 22.789062 -7.351562 24.125 -8.125 C 25.457031 -8.90625 26.507812 -10 27.28125 -11.40625 C 28.0625 -12.820312 28.453125 -14.441406 28.453125 -16.265625 C 28.453125 -18.097656 28.0625 -19.71875 27.28125 -21.125 C 26.507812 -22.539062 25.457031 -23.632812 24.125 -24.40625 C 22.789062 -25.175781 21.300781 -25.5625 19.65625 -25.5625 C 18.019531 -25.5625 16.535156 -25.175781 15.203125 -24.40625 C 13.867188 -23.632812 12.8125 -22.539062 12.03125 -21.125 C 11.257812 -19.71875 10.875 -18.097656 10.875 -16.265625 C 10.875 -14.441406 11.257812 -12.820312 12.03125 -11.40625 C 12.8125 -10 13.867188 -8.90625 15.203125 -8.125 C 16.535156 -7.351562 18.019531 -6.96875 19.65625 -6.96875 Z M 19.65625 -6.96875 "/></g></g></g><g fill="#ffffff" fill-opacity="1"><g transform="translate(242.583561, 330.961098)"><g><path d="M 34.21875 -32.546875 L 34.21875 0 L 26.640625 0 L 12.265625 -17.34375 L 12.265625 0 L 3.25 0 L 3.25 -32.546875 L 10.828125 -32.546875 L 25.1875 -15.203125 L 25.1875 -32.546875 Z M 34.21875 -32.546875 "/></g></g></g><g fill="#ffffff" fill-opacity="1"><g transform="translate(145.649025, 358.559849)"><g><path d="M 9.671875 -6.296875 C 10.472656 -6.117188 11.09375 -5.769531 11.53125 -5.25 C 11.96875 -4.738281 12.1875 -4.078125 12.1875 -3.265625 C 12.1875 -2.210938 11.800781 -1.40625 11.03125 -0.84375 C 10.257812 -0.28125 9.117188 0 7.609375 0 L 1.984375 0 L 1.984375 -12.203125 L 7.25 -12.203125 C 8.613281 -12.203125 9.671875 -11.925781 10.421875 -11.375 C 11.171875 -10.832031 11.546875 -10.0625 11.546875 -9.0625 C 11.546875 -8.394531 11.378906 -7.820312 11.046875 -7.34375 C 10.710938 -6.875 10.253906 -6.523438 9.671875 -6.296875 Z M 3.28125 -11.140625 L 3.28125 -6.71875 L 7.171875 -6.71875 C 8.160156 -6.71875 8.921875 -6.90625 9.453125 -7.28125 C 9.984375 -7.65625 10.25 -8.203125 10.25 -8.921875 C 10.25 -9.648438 9.984375 -10.203125 9.453125 -10.578125 C 8.921875 -10.953125 8.160156 -11.140625 7.171875 -11.140625 Z M 7.578125 -1.0625 C 8.671875 -1.0625 9.492188 -1.242188 10.046875 -1.609375 C 10.609375 -1.984375 10.890625 -2.566406 10.890625 -3.359375 C 10.890625 -4.890625 9.785156 -5.65625 7.578125 -5.65625 L 3.28125 -5.65625 L 3.28125 -1.0625 Z M 7.578125 -1.0625 "/></g></g></g><g fill="#ffffff" fill-opacity="1"><g transform="translate(169.285149, 358.559849)"><g><path d="M 9.640625 -3.265625 L 2.84375 -3.265625 L 1.375 0 L 0.03125 0 L 5.609375 -12.203125 L 6.890625 -12.203125 L 12.46875 0 L 11.109375 0 Z M 9.171875 -4.3125 L 6.25 -10.859375 L 3.3125 -4.3125 Z M 9.171875 -4.3125 "/></g></g></g><g fill="#ffffff" fill-opacity="1"><g transform="translate(192.276331, 358.559849)"><g><path d="M 12.1875 -12.203125 L 12.1875 0 L 11.125 0 L 3.28125 -9.90625 L 3.28125 0 L 1.984375 0 L 1.984375 -12.203125 L 3.046875 -12.203125 L 10.921875 -2.296875 L 10.921875 -12.203125 Z M 12.1875 -12.203125 "/></g></g></g><g fill="#ffffff" fill-opacity="1"><g transform="translate(216.940866, 358.559849)"><g><path d="M 5.765625 -5.734375 L 3.28125 -3.203125 L 3.28125 0 L 1.984375 0 L 1.984375 -12.203125 L 3.28125 -12.203125 L 3.28125 -4.828125 L 10.4375 -12.203125 L 11.921875 -12.203125 L 6.640625 -6.671875 L 12.296875 0 L 10.765625 0 Z M 5.765625 -5.734375 "/></g></g></g></svg>