<svg xmlns="http://www.w3.org/2000/svg" xmlns:xlink="http://www.w3.org/1999/xlink" width="500" zoomAndPan="magnify" viewBox="0 0 375 374.999991" height="500" preserveAspectRatio="xMidYMid meet" version="1.0"><defs><g/><clipPath id="9b4436cc12"><path d="M 125 11.210938 L 243 11.210938 L 243 111 L 125 111 Z M 125 11.210938 " clip-rule="nonzero"/></clipPath><clipPath id="8a9b8797f6"><path d="M 238.378906 11.304688 C 246.699219 38.871094 156.285156 77.417969 125.632812 91.390625 L 125.816406 94.753906 C 126.132812 100.609375 128.257812 105.8125 131.738281 110.566406 C 224.648438 70.726562 254.1875 44.269531 238.378906 11.304688 Z M 238.378906 11.304688 " clip-rule="nonzero"/></clipPath><linearGradient x1="72.139974" gradientTransform="matrix(0.256372, 0, 0, 0.256372, 107.139803, 11.30637)" y1="193.59" x2="573.569979" gradientUnits="userSpaceOnUse" y2="193.59" id="d3d1fc6e54"><stop stop-opacity="1" stop-color="rgb(99.998474%, 99.998474%, 99.998474%)" offset="0"/><stop stop-opacity="1" stop-color="rgb(99.8703%, 99.8703%, 99.8703%)" offset="0.015625"/><stop stop-opacity="1" stop-color="rgb(99.613953%, 99.613953%, 99.613953%)" offset="0.03125"/><stop stop-opacity="1" stop-color="rgb(99.359131%, 99.359131%, 99.359131%)" offset="0.046875"/><stop stop-opacity="1" stop-color="rgb(99.102783%, 99.102783%, 99.102783%)" offset="0.0625"/><stop stop-opacity="1" stop-color="rgb(98.846436%, 98.846436%, 98.846436%)" offset="0.078125"/><stop stop-opacity="1" stop-color="rgb(98.590088%, 98.590088%, 98.590088%)" offset="0.09375"/><stop stop-opacity="1" stop-color="rgb(98.33374%, 98.33374%, 98.33374%)" offset="0.109375"/><stop stop-opacity="1" stop-color="rgb(98.077393%, 98.077393%, 98.077393%)" offset="0.125"/><stop stop-opacity="1" stop-color="rgb(97.821045%, 97.821045%, 97.821045%)" offset="0.140625"/><stop stop-opacity="1" stop-color="rgb(97.564697%, 97.564697%, 97.564697%)" offset="0.15625"/><stop stop-opacity="1" stop-color="rgb(97.30835%, 97.30835%, 97.30835%)" offset="0.171875"/><stop stop-opacity="1" stop-color="rgb(97.052002%, 97.052002%, 97.052002%)" offset="0.1875"/><stop stop-opacity="1" stop-color="rgb(96.795654%, 96.795654%, 96.795654%)" offset="0.203125"/><stop stop-opacity="1" stop-color="rgb(96.539307%, 96.539307%, 96.539307%)" offset="0.21875"/><stop stop-opacity="1" stop-color="rgb(96.282959%, 96.282959%, 96.282959%)" offset="0.234375"/><stop stop-opacity="1" stop-color="rgb(96.026611%, 96.026611%, 96.026611%)" offset="0.25"/><stop stop-opacity="1" stop-color="rgb(95.770264%, 95.770264%, 95.770264%)" offset="0.265625"/><stop stop-opacity="1" stop-color="rgb(95.513916%, 95.513916%, 95.513916%)" offset="0.28125"/><stop stop-opacity="1" stop-color="rgb(95.257568%, 95.257568%, 95.257568%)" offset="0.296875"/><stop stop-opacity="1" stop-color="rgb(95.001221%, 95.001221%, 95.001221%)" offset="0.3125"/><stop stop-opacity="1" stop-color="rgb(94.746399%, 94.746399%, 94.746399%)" offset="0.328125"/><stop stop-opacity="1" stop-color="rgb(94.490051%, 94.490051%, 94.490051%)" offset="0.34375"/><stop stop-opacity="1" stop-color="rgb(94.233704%, 94.233704%, 94.233704%)" offset="0.359375"/><stop stop-opacity="1" stop-color="rgb(93.977356%, 93.977356%, 93.977356%)" offset="0.375"/><stop stop-opacity="1" stop-color="rgb(93.721008%, 93.721008%, 93.721008%)" offset="0.390625"/><stop stop-opacity="1" stop-color="rgb(93.464661%, 93.464661%, 93.464661%)" offset="0.40625"/><stop stop-opacity="1" stop-color="rgb(93.208313%, 93.208313%, 93.208313%)" offset="0.421875"/><stop stop-opacity="1" stop-color="rgb(92.951965%, 92.951965%, 92.951965%)" offset="0.4375"/><stop stop-opacity="1" stop-color="rgb(92.695618%, 92.695618%, 92.695618%)" offset="0.453125"/><stop stop-opacity="1" stop-color="rgb(92.43927%, 92.43927%, 92.43927%)" offset="0.46875"/><stop stop-opacity="1" stop-color="rgb(92.182922%, 92.182922%, 92.182922%)" offset="0.484375"/><stop stop-opacity="1" stop-color="rgb(91.926575%, 91.926575%, 91.926575%)" offset="0.5"/><stop stop-opacity="1" stop-color="rgb(91.670227%, 91.670227%, 91.670227%)" offset="0.515625"/><stop stop-opacity="1" stop-color="rgb(91.413879%, 91.413879%, 91.413879%)" offset="0.53125"/><stop stop-opacity="1" stop-color="rgb(91.157532%, 91.157532%, 91.157532%)" offset="0.546875"/><stop stop-opacity="1" stop-color="rgb(90.901184%, 90.901184%, 90.901184%)" offset="0.5625"/><stop stop-opacity="1" stop-color="rgb(90.644836%, 90.644836%, 90.644836%)" offset="0.578125"/><stop stop-opacity="1" stop-color="rgb(90.388489%, 90.388489%, 90.388489%)" offset="0.59375"/><stop stop-opacity="1" stop-color="rgb(90.133667%, 90.133667%, 90.133667%)" offset="0.609375"/><stop stop-opacity="1" stop-color="rgb(89.877319%, 89.877319%, 89.877319%)" offset="0.625"/><stop stop-opacity="1" stop-color="rgb(89.620972%, 89.620972%, 89.620972%)" offset="0.640625"/><stop stop-opacity="1" stop-color="rgb(89.364624%, 89.364624%, 89.364624%)" offset="0.65625"/><stop stop-opacity="1" stop-color="rgb(89.108276%, 89.108276%, 89.108276%)" offset="0.671875"/><stop stop-opacity="1" stop-color="rgb(88.851929%, 88.851929%, 88.851929%)" offset="0.6875"/><stop stop-opacity="1" stop-color="rgb(88.595581%, 88.595581%, 88.595581%)" offset="0.703125"/><stop stop-opacity="1" stop-color="rgb(88.339233%, 88.339233%, 88.339233%)" offset="0.71875"/><stop stop-opacity="1" stop-color="rgb(88.082886%, 88.082886%, 88.082886%)" offset="0.734375"/><stop stop-opacity="1" stop-color="rgb(87.826538%, 87.826538%, 87.826538%)" offset="0.75"/><stop stop-opacity="1" stop-color="rgb(87.57019%, 87.57019%, 87.57019%)" offset="0.765625"/><stop stop-opacity="1" stop-color="rgb(87.313843%, 87.313843%, 87.313843%)" offset="0.78125"/><stop stop-opacity="1" stop-color="rgb(87.057495%, 87.057495%, 87.057495%)" offset="0.796875"/><stop stop-opacity="1" stop-color="rgb(86.801147%, 86.801147%, 86.801147%)" offset="0.8125"/><stop stop-opacity="1" stop-color="rgb(86.5448%, 86.5448%, 86.5448%)" offset="0.828125"/><stop stop-opacity="1" stop-color="rgb(86.288452%, 86.288452%, 86.288452%)" offset="0.84375"/><stop stop-opacity="1" stop-color="rgb(86.032104%, 86.032104%, 86.032104%)" offset="0.859375"/><stop stop-opacity="1" stop-color="rgb(85.775757%, 85.775757%, 85.775757%)" offset="0.875"/><stop stop-opacity="1" stop-color="rgb(85.520935%, 85.520935%, 85.520935%)" offset="0.890625"/><stop stop-opacity="1" stop-color="rgb(85.264587%, 85.264587%, 85.264587%)" offset="0.90625"/><stop stop-opacity="1" stop-color="rgb(85.118103%, 85.118103%, 85.118103%)" offset="0.9375"/><stop stop-opacity="1" stop-color="rgb(85.099792%, 85.099792%, 85.099792%)" offset="1"/></linearGradient><clipPath id="d65012f6c5"><path d="M 134 31 L 251 31 L 251 128 L 134 128 Z M 134 31 " clip-rule="nonzero"/></clipPath><clipPath id="c0d06817e2"><path d="M 246.050781 35.367188 C 239.917969 67.378906 176.597656 97.085938 134.578125 114.28125 L 134.5625 114.289062 C 139.742188 119.085938 146.355469 123.441406 153.882812 127.605469 C 239.042969 90.183594 261.609375 63.027344 246.746094 31.335938 C 246.589844 32.703125 246.359375 34.050781 246.050781 35.367188 Z M 246.050781 35.367188 " clip-rule="evenodd"/></clipPath><linearGradient x1="106.970006" gradientTransform="matrix(0.256372, 0, 0, 0.256372, 107.139803, 11.30637)" y1="265.883" x2="602.519988" gradientUnits="userSpaceOnUse" y2="265.883" id="86c2787000"><stop stop-opacity="1" stop-color="rgb(100%, 100%, 100%)" offset="0"/><stop stop-opacity="1" stop-color="rgb(99.871826%, 99.871826%, 99.871826%)" offset="0.015625"/><stop stop-opacity="1" stop-color="rgb(99.61853%, 99.61853%, 99.61853%)" offset="0.03125"/><stop stop-opacity="1" stop-color="rgb(99.363708%, 99.363708%, 99.363708%)" offset="0.046875"/><stop stop-opacity="1" stop-color="rgb(99.110413%, 99.110413%, 99.110413%)" offset="0.0625"/><stop stop-opacity="1" stop-color="rgb(98.855591%, 98.855591%, 98.855591%)" offset="0.078125"/><stop stop-opacity="1" stop-color="rgb(98.602295%, 98.602295%, 98.602295%)" offset="0.09375"/><stop stop-opacity="1" stop-color="rgb(98.347473%, 98.347473%, 98.347473%)" offset="0.109375"/><stop stop-opacity="1" stop-color="rgb(98.094177%, 98.094177%, 98.094177%)" offset="0.125"/><stop stop-opacity="1" stop-color="rgb(97.839355%, 97.839355%, 97.839355%)" offset="0.140625"/><stop stop-opacity="1" stop-color="rgb(97.58606%, 97.58606%, 97.58606%)" offset="0.15625"/><stop stop-opacity="1" stop-color="rgb(97.331238%, 97.331238%, 97.331238%)" offset="0.171875"/><stop stop-opacity="1" stop-color="rgb(97.077942%, 97.077942%, 97.077942%)" offset="0.1875"/><stop stop-opacity="1" stop-color="rgb(96.82312%, 96.82312%, 96.82312%)" offset="0.203125"/><stop stop-opacity="1" stop-color="rgb(96.569824%, 96.569824%, 96.569824%)" offset="0.21875"/><stop stop-opacity="1" stop-color="rgb(96.315002%, 96.315002%, 96.315002%)" offset="0.234375"/><stop stop-opacity="1" stop-color="rgb(96.061707%, 96.061707%, 96.061707%)" offset="0.25"/><stop stop-opacity="1" stop-color="rgb(95.806885%, 95.806885%, 95.806885%)" offset="0.265625"/><stop stop-opacity="1" stop-color="rgb(95.553589%, 95.553589%, 95.553589%)" offset="0.28125"/><stop stop-opacity="1" stop-color="rgb(95.298767%, 95.298767%, 95.298767%)" offset="0.296875"/><stop stop-opacity="1" stop-color="rgb(95.045471%, 95.045471%, 95.045471%)" offset="0.3125"/><stop stop-opacity="1" stop-color="rgb(94.790649%, 94.790649%, 94.790649%)" offset="0.328125"/><stop stop-opacity="1" stop-color="rgb(94.537354%, 94.537354%, 94.537354%)" offset="0.34375"/><stop stop-opacity="1" stop-color="rgb(94.282532%, 94.282532%, 94.282532%)" offset="0.359375"/><stop stop-opacity="1" stop-color="rgb(94.029236%, 94.029236%, 94.029236%)" offset="0.375"/><stop stop-opacity="1" stop-color="rgb(93.774414%, 93.774414%, 93.774414%)" offset="0.390625"/><stop stop-opacity="1" stop-color="rgb(93.521118%, 93.521118%, 93.521118%)" offset="0.40625"/><stop stop-opacity="1" stop-color="rgb(93.266296%, 93.266296%, 93.266296%)" offset="0.421875"/><stop stop-opacity="1" stop-color="rgb(93.013%, 93.013%, 93.013%)" offset="0.4375"/><stop stop-opacity="1" stop-color="rgb(92.758179%, 92.758179%, 92.758179%)" offset="0.453125"/><stop stop-opacity="1" stop-color="rgb(92.504883%, 92.504883%, 92.504883%)" offset="0.46875"/><stop stop-opacity="1" stop-color="rgb(92.250061%, 92.250061%, 92.250061%)" offset="0.484375"/><stop stop-opacity="1" stop-color="rgb(91.996765%, 91.996765%, 91.996765%)" offset="0.5"/><stop stop-opacity="1" stop-color="rgb(91.743469%, 91.743469%, 91.743469%)" offset="0.515625"/><stop stop-opacity="1" stop-color="rgb(91.488647%, 91.488647%, 91.488647%)" offset="0.53125"/><stop stop-opacity="1" stop-color="rgb(91.235352%, 91.235352%, 91.235352%)" offset="0.546875"/><stop stop-opacity="1" stop-color="rgb(90.98053%, 90.98053%, 90.98053%)" offset="0.5625"/><stop stop-opacity="1" stop-color="rgb(90.727234%, 90.727234%, 90.727234%)" offset="0.578125"/><stop stop-opacity="1" stop-color="rgb(90.472412%, 90.472412%, 90.472412%)" offset="0.59375"/><stop stop-opacity="1" stop-color="rgb(90.219116%, 90.219116%, 90.219116%)" offset="0.609375"/><stop stop-opacity="1" stop-color="rgb(89.964294%, 89.964294%, 89.964294%)" offset="0.625"/><stop stop-opacity="1" stop-color="rgb(89.710999%, 89.710999%, 89.710999%)" offset="0.640625"/><stop stop-opacity="1" stop-color="rgb(89.456177%, 89.456177%, 89.456177%)" offset="0.65625"/><stop stop-opacity="1" stop-color="rgb(89.202881%, 89.202881%, 89.202881%)" offset="0.671875"/><stop stop-opacity="1" stop-color="rgb(88.948059%, 88.948059%, 88.948059%)" offset="0.6875"/><stop stop-opacity="1" stop-color="rgb(88.694763%, 88.694763%, 88.694763%)" offset="0.703125"/><stop stop-opacity="1" stop-color="rgb(88.439941%, 88.439941%, 88.439941%)" offset="0.71875"/><stop stop-opacity="1" stop-color="rgb(88.186646%, 88.186646%, 88.186646%)" offset="0.734375"/><stop stop-opacity="1" stop-color="rgb(87.931824%, 87.931824%, 87.931824%)" offset="0.75"/><stop stop-opacity="1" stop-color="rgb(87.678528%, 87.678528%, 87.678528%)" offset="0.765625"/><stop stop-opacity="1" stop-color="rgb(87.423706%, 87.423706%, 87.423706%)" offset="0.78125"/><stop stop-opacity="1" stop-color="rgb(87.17041%, 87.17041%, 87.17041%)" offset="0.796875"/><stop stop-opacity="1" stop-color="rgb(86.915588%, 86.915588%, 86.915588%)" offset="0.8125"/><stop stop-opacity="1" stop-color="rgb(86.662292%, 86.662292%, 86.662292%)" offset="0.828125"/><stop stop-opacity="1" stop-color="rgb(86.407471%, 86.407471%, 86.407471%)" offset="0.84375"/><stop stop-opacity="1" stop-color="rgb(86.154175%, 86.154175%, 86.154175%)" offset="0.859375"/><stop stop-opacity="1" stop-color="rgb(85.899353%, 85.899353%, 85.899353%)" offset="0.875"/><stop stop-opacity="1" stop-color="rgb(85.646057%, 85.646057%, 85.646057%)" offset="0.890625"/><stop stop-opacity="1" stop-color="rgb(85.391235%, 85.391235%, 85.391235%)" offset="0.90625"/><stop stop-opacity="1" stop-color="rgb(85.18219%, 85.18219%, 85.18219%)" offset="0.9375"/><stop stop-opacity="1" stop-color="rgb(85.099792%, 85.099792%, 85.099792%)" offset="1"/></linearGradient><clipPath id="7a3abcd6cc"><path d="M 116 95 L 272 95 L 272 261 L 116 261 Z M 116 95 " clip-rule="nonzero"/></clipPath><clipPath id="4c470fa4cf"><path d="M 188.085938 175.464844 C 134.058594 152.796875 104.441406 126.941406 121.285156 95 C 124.683594 157.820312 300.734375 149.875 267.183594 260.152344 C 262.335938 211.191406 223.546875 193.816406 188.085938 175.464844 Z M 188.085938 175.464844 " clip-rule="evenodd"/></clipPath><linearGradient x1="-10.520025" gradientTransform="matrix(0.256372, 0, 0, 0.256372, 107.139803, 11.30637)" y1="648.547" x2="755.129966" gradientUnits="userSpaceOnUse" y2="648.547" id="569d9e115d"><stop stop-opacity="1" stop-color="rgb(85.099792%, 85.099792%, 85.099792%)" offset="0"/><stop stop-opacity="1" stop-color="rgb(85.105896%, 85.105896%, 85.105896%)" offset="0.0625"/><stop stop-opacity="1" stop-color="rgb(85.26001%, 85.26001%, 85.26001%)" offset="0.078125"/><stop stop-opacity="1" stop-color="rgb(85.55603%, 85.55603%, 85.55603%)" offset="0.09375"/><stop stop-opacity="1" stop-color="rgb(85.850525%, 85.850525%, 85.850525%)" offset="0.109375"/><stop stop-opacity="1" stop-color="rgb(86.14502%, 86.14502%, 86.14502%)" offset="0.125"/><stop stop-opacity="1" stop-color="rgb(86.44104%, 86.44104%, 86.44104%)" offset="0.140625"/><stop stop-opacity="1" stop-color="rgb(86.735535%, 86.735535%, 86.735535%)" offset="0.15625"/><stop stop-opacity="1" stop-color="rgb(87.031555%, 87.031555%, 87.031555%)" offset="0.171875"/><stop stop-opacity="1" stop-color="rgb(87.32605%, 87.32605%, 87.32605%)" offset="0.1875"/><stop stop-opacity="1" stop-color="rgb(87.620544%, 87.620544%, 87.620544%)" offset="0.203125"/><stop stop-opacity="1" stop-color="rgb(87.916565%, 87.916565%, 87.916565%)" offset="0.21875"/><stop stop-opacity="1" stop-color="rgb(88.21106%, 88.21106%, 88.21106%)" offset="0.234375"/><stop stop-opacity="1" stop-color="rgb(88.505554%, 88.505554%, 88.505554%)" offset="0.25"/><stop stop-opacity="1" stop-color="rgb(88.801575%, 88.801575%, 88.801575%)" offset="0.265625"/><stop stop-opacity="1" stop-color="rgb(89.096069%, 89.096069%, 89.096069%)" offset="0.28125"/><stop stop-opacity="1" stop-color="rgb(89.39209%, 89.39209%, 89.39209%)" offset="0.296875"/><stop stop-opacity="1" stop-color="rgb(89.686584%, 89.686584%, 89.686584%)" offset="0.3125"/><stop stop-opacity="1" stop-color="rgb(89.981079%, 89.981079%, 89.981079%)" offset="0.328125"/><stop stop-opacity="1" stop-color="rgb(90.2771%, 90.2771%, 90.2771%)" offset="0.34375"/><stop stop-opacity="1" stop-color="rgb(90.571594%, 90.571594%, 90.571594%)" offset="0.359375"/><stop stop-opacity="1" stop-color="rgb(90.867615%, 90.867615%, 90.867615%)" offset="0.375"/><stop stop-opacity="1" stop-color="rgb(91.162109%, 91.162109%, 91.162109%)" offset="0.390625"/><stop stop-opacity="1" stop-color="rgb(91.456604%, 91.456604%, 91.456604%)" offset="0.40625"/><stop stop-opacity="1" stop-color="rgb(91.752625%, 91.752625%, 91.752625%)" offset="0.421875"/><stop stop-opacity="1" stop-color="rgb(92.047119%, 92.047119%, 92.047119%)" offset="0.4375"/><stop stop-opacity="1" stop-color="rgb(92.341614%, 92.341614%, 92.341614%)" offset="0.453125"/><stop stop-opacity="1" stop-color="rgb(92.637634%, 92.637634%, 92.637634%)" offset="0.46875"/><stop stop-opacity="1" stop-color="rgb(92.932129%, 92.932129%, 92.932129%)" offset="0.484375"/><stop stop-opacity="1" stop-color="rgb(93.228149%, 93.228149%, 93.228149%)" offset="0.5"/><stop stop-opacity="1" stop-color="rgb(93.522644%, 93.522644%, 93.522644%)" offset="0.515625"/><stop stop-opacity="1" stop-color="rgb(93.817139%, 93.817139%, 93.817139%)" offset="0.53125"/><stop stop-opacity="1" stop-color="rgb(94.113159%, 94.113159%, 94.113159%)" offset="0.546875"/><stop stop-opacity="1" stop-color="rgb(94.407654%, 94.407654%, 94.407654%)" offset="0.5625"/><stop stop-opacity="1" stop-color="rgb(94.703674%, 94.703674%, 94.703674%)" offset="0.578125"/><stop stop-opacity="1" stop-color="rgb(94.998169%, 94.998169%, 94.998169%)" offset="0.59375"/><stop stop-opacity="1" stop-color="rgb(95.292664%, 95.292664%, 95.292664%)" offset="0.609375"/><stop stop-opacity="1" stop-color="rgb(95.588684%, 95.588684%, 95.588684%)" offset="0.625"/><stop stop-opacity="1" stop-color="rgb(95.883179%, 95.883179%, 95.883179%)" offset="0.640625"/><stop stop-opacity="1" stop-color="rgb(96.177673%, 96.177673%, 96.177673%)" offset="0.65625"/><stop stop-opacity="1" stop-color="rgb(96.473694%, 96.473694%, 96.473694%)" offset="0.671875"/><stop stop-opacity="1" stop-color="rgb(96.768188%, 96.768188%, 96.768188%)" offset="0.6875"/><stop stop-opacity="1" stop-color="rgb(97.064209%, 97.064209%, 97.064209%)" offset="0.703125"/><stop stop-opacity="1" stop-color="rgb(97.358704%, 97.358704%, 97.358704%)" offset="0.71875"/><stop stop-opacity="1" stop-color="rgb(97.653198%, 97.653198%, 97.653198%)" offset="0.734375"/><stop stop-opacity="1" stop-color="rgb(97.949219%, 97.949219%, 97.949219%)" offset="0.75"/><stop stop-opacity="1" stop-color="rgb(98.243713%, 98.243713%, 98.243713%)" offset="0.765625"/><stop stop-opacity="1" stop-color="rgb(98.539734%, 98.539734%, 98.539734%)" offset="0.78125"/><stop stop-opacity="1" stop-color="rgb(98.834229%, 98.834229%, 98.834229%)" offset="0.796875"/><stop stop-opacity="1" stop-color="rgb(99.128723%, 99.128723%, 99.128723%)" offset="0.8125"/><stop stop-opacity="1" stop-color="rgb(99.424744%, 99.424744%, 99.424744%)" offset="0.828125"/><stop stop-opacity="1" stop-color="rgb(99.719238%, 99.719238%, 99.719238%)" offset="0.84375"/><stop stop-opacity="1" stop-color="rgb(99.932861%, 99.932861%, 99.932861%)" offset="0.875"/><stop stop-opacity="1" stop-color="rgb(100%, 100%, 100%)" offset="1"/></linearGradient><clipPath id="876583dbf4"><path d="M 107 116 L 262 116 L 262 287.960938 L 107 287.960938 Z M 107 116 " clip-rule="nonzero"/></clipPath><clipPath id="452eaa7e44"><path d="M 112.753906 116.714844 C 120.554688 185.9375 294.703125 180.710938 255.351562 287.582031 C 245.847656 191.609375 74.277344 189.691406 112.753906 116.714844 Z M 112.753906 116.714844 " clip-rule="evenodd"/></clipPath><linearGradient x1="-128.190025" gradientTransform="matrix(0.256372, 0, 0, 0.256372, 107.139803, 11.30637)" y1="744.40198" x2="731.600007" gradientUnits="userSpaceOnUse" y2="744.40198" id="b1f599bc93"><stop stop-opacity="1" stop-color="rgb(85.099792%, 85.099792%, 85.099792%)" offset="0"/><stop stop-opacity="1" stop-color="rgb(85.099792%, 85.099792%, 85.099792%)" offset="0.125"/><stop stop-opacity="1" stop-color="rgb(85.176086%, 85.176086%, 85.176086%)" offset="0.15625"/><stop stop-opacity="1" stop-color="rgb(85.418701%, 85.418701%, 85.418701%)" offset="0.171875"/><stop stop-opacity="1" stop-color="rgb(85.751343%, 85.751343%, 85.751343%)" offset="0.1875"/><stop stop-opacity="1" stop-color="rgb(86.083984%, 86.083984%, 86.083984%)" offset="0.203125"/><stop stop-opacity="1" stop-color="rgb(86.418152%, 86.418152%, 86.418152%)" offset="0.21875"/><stop stop-opacity="1" stop-color="rgb(86.750793%, 86.750793%, 86.750793%)" offset="0.234375"/><stop stop-opacity="1" stop-color="rgb(87.084961%, 87.084961%, 87.084961%)" offset="0.25"/><stop stop-opacity="1" stop-color="rgb(87.417603%, 87.417603%, 87.417603%)" offset="0.265625"/><stop stop-opacity="1" stop-color="rgb(87.750244%, 87.750244%, 87.750244%)" offset="0.28125"/><stop stop-opacity="1" stop-color="rgb(88.084412%, 88.084412%, 88.084412%)" offset="0.296875"/><stop stop-opacity="1" stop-color="rgb(88.417053%, 88.417053%, 88.417053%)" offset="0.3125"/><stop stop-opacity="1" stop-color="rgb(88.751221%, 88.751221%, 88.751221%)" offset="0.328125"/><stop stop-opacity="1" stop-color="rgb(89.083862%, 89.083862%, 89.083862%)" offset="0.34375"/><stop stop-opacity="1" stop-color="rgb(89.416504%, 89.416504%, 89.416504%)" offset="0.359375"/><stop stop-opacity="1" stop-color="rgb(89.750671%, 89.750671%, 89.750671%)" offset="0.375"/><stop stop-opacity="1" stop-color="rgb(90.083313%, 90.083313%, 90.083313%)" offset="0.390625"/><stop stop-opacity="1" stop-color="rgb(90.41748%, 90.41748%, 90.41748%)" offset="0.40625"/><stop stop-opacity="1" stop-color="rgb(90.750122%, 90.750122%, 90.750122%)" offset="0.421875"/><stop stop-opacity="1" stop-color="rgb(91.082764%, 91.082764%, 91.082764%)" offset="0.4375"/><stop stop-opacity="1" stop-color="rgb(91.416931%, 91.416931%, 91.416931%)" offset="0.453125"/><stop stop-opacity="1" stop-color="rgb(91.749573%, 91.749573%, 91.749573%)" offset="0.46875"/><stop stop-opacity="1" stop-color="rgb(92.08374%, 92.08374%, 92.08374%)" offset="0.484375"/><stop stop-opacity="1" stop-color="rgb(92.416382%, 92.416382%, 92.416382%)" offset="0.5"/><stop stop-opacity="1" stop-color="rgb(92.749023%, 92.749023%, 92.749023%)" offset="0.515625"/><stop stop-opacity="1" stop-color="rgb(93.083191%, 93.083191%, 93.083191%)" offset="0.53125"/><stop stop-opacity="1" stop-color="rgb(93.415833%, 93.415833%, 93.415833%)" offset="0.546875"/><stop stop-opacity="1" stop-color="rgb(93.75%, 93.75%, 93.75%)" offset="0.5625"/><stop stop-opacity="1" stop-color="rgb(94.082642%, 94.082642%, 94.082642%)" offset="0.578125"/><stop stop-opacity="1" stop-color="rgb(94.415283%, 94.415283%, 94.415283%)" offset="0.59375"/><stop stop-opacity="1" stop-color="rgb(94.749451%, 94.749451%, 94.749451%)" offset="0.609375"/><stop stop-opacity="1" stop-color="rgb(95.082092%, 95.082092%, 95.082092%)" offset="0.625"/><stop stop-opacity="1" stop-color="rgb(95.41626%, 95.41626%, 95.41626%)" offset="0.640625"/><stop stop-opacity="1" stop-color="rgb(95.748901%, 95.748901%, 95.748901%)" offset="0.65625"/><stop stop-opacity="1" stop-color="rgb(96.081543%, 96.081543%, 96.081543%)" offset="0.671875"/><stop stop-opacity="1" stop-color="rgb(96.41571%, 96.41571%, 96.41571%)" offset="0.6875"/><stop stop-opacity="1" stop-color="rgb(96.748352%, 96.748352%, 96.748352%)" offset="0.703125"/><stop stop-opacity="1" stop-color="rgb(97.08252%, 97.08252%, 97.08252%)" offset="0.71875"/><stop stop-opacity="1" stop-color="rgb(97.415161%, 97.415161%, 97.415161%)" offset="0.734375"/><stop stop-opacity="1" stop-color="rgb(97.747803%, 97.747803%, 97.747803%)" offset="0.75"/><stop stop-opacity="1" stop-color="rgb(98.08197%, 98.08197%, 98.08197%)" offset="0.765625"/><stop stop-opacity="1" stop-color="rgb(98.414612%, 98.414612%, 98.414612%)" offset="0.78125"/><stop stop-opacity="1" stop-color="rgb(98.748779%, 98.748779%, 98.748779%)" offset="0.796875"/><stop stop-opacity="1" stop-color="rgb(99.081421%, 99.081421%, 99.081421%)" offset="0.8125"/><stop stop-opacity="1" stop-color="rgb(99.414062%, 99.414062%, 99.414062%)" offset="0.828125"/><stop stop-opacity="1" stop-color="rgb(99.74823%, 99.74823%, 99.74823%)" offset="0.84375"/><stop stop-opacity="1" stop-color="rgb(99.957275%, 99.957275%, 99.957275%)" offset="0.875"/><stop stop-opacity="1" stop-color="rgb(100%, 100%, 100%)" offset="1"/></linearGradient><clipPath id="4ddbdd3884"><path d="M 105.058594 202.304688 L 172 202.304688 L 172 279.554688 L 105.058594 279.554688 Z M 105.058594 202.304688 " clip-rule="nonzero"/></clipPath></defs><g clip-path="url(#9b4436cc12)"><g clip-path="url(#8a9b8797f6)"><path fill="url(#d3d1fc6e54)" d="M 125.632812 11.304688 L 125.632812 110.566406 L 254.1875 110.566406 L 254.1875 11.304688 Z M 125.632812 11.304688 " fill-rule="nonzero"/></g></g><g clip-path="url(#d65012f6c5)"><g clip-path="url(#c0d06817e2)"><path fill="url(#86c2787000)" d="M 134.5625 31.335938 L 134.5625 127.605469 L 261.609375 127.605469 L 261.609375 31.335938 Z M 134.5625 31.335938 " fill-rule="nonzero"/></g></g><g clip-path="url(#7a3abcd6cc)"><g clip-path="url(#4c470fa4cf)"><path fill="url(#569d9e115d)" d="M 104.441406 95 L 104.441406 260.152344 L 300.734375 260.152344 L 300.734375 95 Z M 104.441406 95 " fill-rule="nonzero"/></g></g><g clip-path="url(#876583dbf4)"><g clip-path="url(#452eaa7e44)"><path fill="url(#b1f599bc93)" d="M 74.277344 116.714844 L 74.277344 287.582031 L 294.703125 287.582031 L 294.703125 116.714844 Z M 74.277344 116.714844 " fill-rule="nonzero"/></g></g><g clip-path="url(#4ddbdd3884)"><path fill="#d9d9d9" d="M 153.667969 272.644531 C 160.253906 272.644531 166.371094 270.648438 171.449219 267.230469 C 164.4375 274.617188 154.527344 279.226562 143.539062 279.226562 C 122.300781 279.226562 105.078125 262.007812 105.078125 240.765625 C 105.078125 219.523438 122.300781 202.308594 143.539062 202.308594 C 154.53125 202.308594 164.445312 206.917969 171.453125 214.3125 C 166.375 210.890625 160.253906 208.890625 153.667969 208.890625 C 136.0625 208.890625 121.792969 223.164062 121.792969 240.769531 C 121.792969 258.371094 136.0625 272.644531 153.667969 272.644531 Z M 153.667969 272.644531 " fill-opacity="1" fill-rule="nonzero"/></g><path fill="#ffffff" d="M 135.460938 236.070312 C 132.445312 239.597656 130.714844 243.785156 130.222656 248.066406 C 129.472656 240.933594 131.542969 233.515625 136.570312 227.632812 C 146.289062 216.261719 163.386719 214.917969 174.761719 224.636719 C 186.136719 234.359375 187.476562 251.457031 177.757812 262.832031 C 172.726562 268.71875 165.722656 271.917969 158.554688 272.285156 C 162.710938 271.132812 166.585938 268.769531 169.597656 265.242188 C 177.652344 255.816406 176.539062 241.644531 167.113281 233.585938 C 157.6875 225.53125 143.515625 226.644531 135.460938 236.070312 Z M 135.460938 236.070312 " fill-opacity="1" fill-rule="nonzero"/><path fill="#efefef" d="M 135.835938 262.875 C 139.199219 267.332031 143.671875 270.449219 148.582031 272.136719 C 140.003906 271.171875 131.824219 266.820312 126.210938 259.386719 C 115.363281 245.023438 118.21875 224.582031 132.582031 213.734375 C 146.949219 202.882812 167.390625 205.738281 178.238281 220.105469 C 183.851562 227.539062 185.796875 236.601562 184.375 245.117188 C 184.097656 239.933594 182.320312 234.769531 178.957031 230.316406 C 169.96875 218.410156 153.023438 216.046875 141.117188 225.035156 C 129.210938 234.027344 126.847656 250.96875 135.835938 262.875 Z M 135.835938 262.875 " fill-opacity="1" fill-rule="nonzero"/><g fill="#ffffff" fill-opacity="1"><g transform="translate(94.922845, 330.961098)"><g><path d="M 18.265625 0.65625 C 13.429688 0.65625 9.671875 -0.660156 6.984375 -3.296875 C 4.304688 -5.929688 2.96875 -9.664062 2.96875 -14.5 L 2.96875 -32.546875 L 12.171875 -32.546875 L 12.171875 -14.78125 C 12.171875 -9.570312 14.234375 -6.96875 18.359375 -6.96875 C 22.453125 -6.96875 24.5 -9.570312 24.5 -14.78125 L 24.5 -32.546875 L 33.5625 -32.546875 L 33.5625 -14.5 C 33.5625 -9.664062 32.21875 -5.929688 29.53125 -3.296875 C 26.851562 -0.660156 23.097656 0.65625 18.265625 0.65625 Z M 18.265625 0.65625 "/></g></g></g><g fill="#ffffff" fill-opacity="1"><g transform="translate(136.102329, 330.961098)"><g><path d="M 34.21875 -32.546875 L 34.21875 0 L 26.640625 0 L 12.265625 -17.34375 L 12.265625 0 L 3.25 0 L 3.25 -32.546875 L 10.828125 -32.546875 L 25.1875 -15.203125 L 25.1875 -32.546875 Z M 34.21875 -32.546875 "/></g></g></g><g fill="#ffffff" fill-opacity="1"><g transform="translate(178.211361, 330.961098)"><g><path d="M 3.25 -32.546875 L 12.453125 -32.546875 L 12.453125 0 L 3.25 0 Z M 3.25 -32.546875 "/></g></g></g><g fill="#ffffff" fill-opacity="1"><g transform="translate(198.615421, 330.961098)"><g><path d="M 19.65625 0.65625 C 16.21875 0.65625 13.128906 -0.0703125 10.390625 -1.53125 C 7.648438 -2.988281 5.492188 -5.003906 3.921875 -7.578125 C 2.359375 -10.148438 1.578125 -13.046875 1.578125 -16.265625 C 1.578125 -19.492188 2.359375 -22.394531 3.921875 -24.96875 C 5.492188 -27.539062 7.648438 -29.550781 10.390625 -31 C 13.128906 -32.457031 16.21875 -33.1875 19.65625 -33.1875 C 23.101562 -33.1875 26.195312 -32.457031 28.9375 -31 C 31.675781 -29.550781 33.828125 -27.539062 35.390625 -24.96875 C 36.960938 -22.394531 37.75 -19.492188 37.75 -16.265625 C 37.75 -13.046875 36.960938 -10.148438 35.390625 -7.578125 C 33.828125 -5.003906 31.675781 -2.988281 28.9375 -1.53125 C 26.195312 -0.0703125 23.101562 0.65625 19.65625 0.65625 Z M 19.65625 -6.96875 C 21.300781 -6.96875 22.789062 -7.351562 24.125 -8.125 C 25.457031 -8.90625 26.507812 -10 27.28125 -11.40625 C 28.0625 -12.820312 28.453125 -14.441406 28.453125 -16.265625 C 28.453125 -18.097656 28.0625 -19.71875 27.28125 -21.125 C 26.507812 -22.539062 25.457031 -23.632812 24.125 -24.40625 C 22.789062 -25.175781 21.300781 -25.5625 19.65625 -25.5625 C 18.019531 -25.5625 16.535156 -25.175781 15.203125 -24.40625 C 13.867188 -23.632812 12.8125 -22.539062 12.03125 -21.125 C 11.257812 -19.71875 10.875 -18.097656 10.875 -16.265625 C 10.875 -14.441406 11.257812 -12.820312 12.03125 -11.40625 C 12.8125 -10 13.867188 -8.90625 15.203125 -8.125 C 16.535156 -7.351562 18.019531 -6.96875 19.65625 -6.96875 Z M 19.65625 -6.96875 "/></g></g></g><g fill="#ffffff" fill-opacity="1"><g transform="translate(242.583561, 330.961098)"><g><path d="M 34.21875 -32.546875 L 34.21875 0 L 26.640625 0 L 12.265625 -17.34375 L 12.265625 0 L 3.25 0 L 3.25 -32.546875 L 10.828125 -32.546875 L 25.1875 -15.203125 L 25.1875 -32.546875 Z M 34.21875 -32.546875 "/></g></g></g><g fill="#ffffff" fill-opacity="1"><g transform="translate(145.649025, 358.559849)"><g><path d="M 9.671875 -6.296875 C 10.472656 -6.117188 11.09375 -5.769531 11.53125 -5.25 C 11.96875 -4.738281 12.1875 -4.078125 12.1875 -3.265625 C 12.1875 -2.210938 11.800781 -1.40625 11.03125 -0.84375 C 10.257812 -0.28125 9.117188 0 7.609375 0 L 1.984375 0 L 1.984375 -12.203125 L 7.25 -12.203125 C 8.613281 -12.203125 9.671875 -11.925781 10.421875 -11.375 C 11.171875 -10.832031 11.546875 -10.0625 11.546875 -9.0625 C 11.546875 -8.394531 11.378906 -7.820312 11.046875 -7.34375 C 10.710938 -6.875 10.253906 -6.523438 9.671875 -6.296875 Z M 3.28125 -11.140625 L 3.28125 -6.71875 L 7.171875 -6.71875 C 8.160156 -6.71875 8.921875 -6.90625 9.453125 -7.28125 C 9.984375 -7.65625 10.25 -8.203125 10.25 -8.921875 C 10.25 -9.648438 9.984375 -10.203125 9.453125 -10.578125 C 8.921875 -10.953125 8.160156 -11.140625 7.171875 -11.140625 Z M 7.578125 -1.0625 C 8.671875 -1.0625 9.492188 -1.242188 10.046875 -1.609375 C 10.609375 -1.984375 10.890625 -2.566406 10.890625 -3.359375 C 10.890625 -4.890625 9.785156 -5.65625 7.578125 -5.65625 L 3.28125 -5.65625 L 3.28125 -1.0625 Z M 7.578125 -1.0625 "/></g></g></g><g fill="#ffffff" fill-opacity="1"><g transform="translate(169.285149, 358.559849)"><g><path d="M 9.640625 -3.265625 L 2.84375 -3.265625 L 1.375 0 L 0.03125 0 L 5.609375 -12.203125 L 6.890625 -12.203125 L 12.46875 0 L 11.109375 0 Z M 9.171875 -4.3125 L 6.25 -10.859375 L 3.3125 -4.3125 Z M 9.171875 -4.3125 "/></g></g></g><g fill="#ffffff" fill-opacity="1"><g transform="translate(192.276331, 358.559849)"><g><path d="M 12.1875 -12.203125 L 12.1875 0 L 11.125 0 L 3.28125 -9.90625 L 3.28125 0 L 1.984375 0 L 1.984375 -12.203125 L 3.046875 -12.203125 L 10.921875 -2.296875 L 10.921875 -12.203125 Z M 12.1875 -12.203125 "/></g></g></g><g fill="#ffffff" fill-opacity="1"><g transform="translate(216.940866, 358.559849)"><g><path d="M 5.765625 -5.734375 L 3.28125 -3.203125 L 3.28125 0 L 1.984375 0 L 1.984375 -12.203125 L 3.28125 -12.203125 L 3.28125 -4.828125 L 10.4375 -12.203125 L 11.921875 -12.203125 L 6.640625 -6.671875 L 12.296875 0 L 10.765625 0 Z M 5.765625 -5.734375 "/></g></g></g></svg>