<svg xmlns="http://www.w3.org/2000/svg" xmlns:xlink="http://www.w3.org/1999/xlink" width="1700" zoomAndPan="magnify" viewBox="0 0 1275 449.999984" height="600" preserveAspectRatio="xMidYMid meet" version="1.0"><defs><g/></defs><g fill="#ffffff" fill-opacity="1"><g transform="translate(510.418152, 259.444774)"><g><path d="M 105.859375 -68.921875 L 82.609375 0 L 74.9375 0 L 54.75 -58.78125 L 34.46875 0 L 26.875 0 L 3.640625 -68.921875 L 11.125 -68.921875 L 31.015625 -9.65625 L 51.59375 -68.921875 L 58.390625 -68.921875 L 78.671875 -9.359375 L 98.859375 -68.921875 Z M 105.859375 -68.921875 "/></g></g></g><g fill="#ffffff" fill-opacity="1"><g transform="translate(679.086683, 259.444774)"><g><path d="M 54.453125 -18.40625 L 16.046875 -18.40625 L 7.78125 0 L 0.203125 0 L 31.703125 -68.921875 L 38.890625 -68.921875 L 70.40625 0 L 62.71875 0 Z M 51.796875 -24.328125 L 35.25 -61.34375 L 18.703125 -24.328125 Z M 51.796875 -24.328125 "/></g></g></g><g fill="#ffffff" fill-opacity="1"><g transform="translate(808.962033, 259.444774)"><g><path d="M 11.21875 -68.921875 L 18.515625 -68.921875 L 18.515625 -6.296875 L 57.109375 -6.296875 L 57.109375 0 L 11.21875 0 Z M 11.21875 -68.921875 "/></g></g></g><g fill="#ffffff" fill-opacity="1"><g transform="translate(926.234523, 259.444774)"><g><path d="M 11.21875 -68.921875 L 18.515625 -68.921875 L 18.515625 -6.296875 L 57.109375 -6.296875 L 57.109375 0 L 11.21875 0 Z M 11.21875 -68.921875 "/></g></g></g><g fill="#ffffff" fill-opacity="1"><g transform="translate(1043.507014, 259.444774)"><g><path d="M 59.96875 -6.296875 L 59.96875 0 L 11.21875 0 L 11.21875 -68.921875 L 58.484375 -68.921875 L 58.484375 -62.625 L 18.515625 -62.625 L 18.515625 -38.109375 L 54.15625 -38.109375 L 54.15625 -31.90625 L 18.515625 -31.90625 L 18.515625 -6.296875 Z M 59.96875 -6.296875 "/></g></g></g><g fill="#ffffff" fill-opacity="1"><g transform="translate(1168.656291, 259.444774)"><g><path d="M 24.625 -62.625 L 0.390625 -62.625 L 0.390625 -68.921875 L 56.125 -68.921875 L 56.125 -62.625 L 31.90625 -62.625 L 31.90625 0 L 24.625 0 Z M 24.625 -62.625 "/></g></g></g><g fill="#ffffff" fill-opacity="1"><g transform="translate(42.938103, 259.447791)"><g><path d="M 38.6875 1.375 C 28.445312 1.375 20.488281 -1.410156 14.8125 -6.984375 C 9.132812 -12.566406 6.296875 -20.476562 6.296875 -30.71875 L 6.296875 -68.90625 L 25.796875 -68.90625 L 25.796875 -31.296875 C 25.796875 -20.273438 30.160156 -14.765625 38.890625 -14.765625 C 47.546875 -14.765625 51.875 -20.273438 51.875 -31.296875 L 51.875 -68.90625 L 71.078125 -68.90625 L 71.078125 -30.71875 C 71.078125 -20.476562 68.238281 -12.566406 62.5625 -6.984375 C 56.882812 -1.410156 48.925781 1.375 38.6875 1.375 Z M 38.6875 1.375 "/></g></g></g><g fill="#ffffff" fill-opacity="1"><g transform="translate(130.151002, 259.447791)"><g><path d="M 72.453125 -68.90625 L 72.453125 0 L 56.40625 0 L 25.984375 -36.71875 L 25.984375 0 L 6.890625 0 L 6.890625 -68.90625 L 22.9375 -68.90625 L 53.359375 -32.1875 L 53.359375 -68.90625 Z M 72.453125 -68.90625 "/></g></g></g><g fill="#ffffff" fill-opacity="1"><g transform="translate(219.332573, 259.447791)"><g><path d="M 6.890625 -68.90625 L 26.375 -68.90625 L 26.375 0 L 6.890625 0 Z M 6.890625 -68.90625 "/></g></g></g><g fill="#ffffff" fill-opacity="1"><g transform="translate(262.545649, 259.447791)"><g><path d="M 41.640625 1.375 C 34.359375 1.375 27.8125 -0.164062 22 -3.25 C 16.195312 -6.332031 11.632812 -10.597656 8.3125 -16.046875 C 5 -21.492188 3.34375 -27.628906 3.34375 -34.453125 C 3.34375 -41.273438 5 -47.410156 8.3125 -52.859375 C 11.632812 -58.304688 16.195312 -62.570312 22 -65.65625 C 27.8125 -68.738281 34.359375 -70.28125 41.640625 -70.28125 C 48.921875 -70.28125 55.460938 -68.738281 61.265625 -65.65625 C 67.078125 -62.570312 71.640625 -58.304688 74.953125 -52.859375 C 78.273438 -47.410156 79.9375 -41.273438 79.9375 -34.453125 C 79.9375 -27.628906 78.273438 -21.492188 74.953125 -16.046875 C 71.640625 -10.597656 67.078125 -6.332031 61.265625 -3.25 C 55.460938 -0.164062 48.921875 1.375 41.640625 1.375 Z M 41.640625 -14.765625 C 45.117188 -14.765625 48.269531 -15.582031 51.09375 -17.21875 C 53.914062 -18.863281 56.144531 -21.175781 57.78125 -24.15625 C 59.425781 -27.144531 60.25 -30.578125 60.25 -34.453125 C 60.25 -38.328125 59.425781 -41.753906 57.78125 -44.734375 C 56.144531 -47.722656 53.914062 -50.035156 51.09375 -51.671875 C 48.269531 -53.316406 45.117188 -54.140625 41.640625 -54.140625 C 38.160156 -54.140625 35.007812 -53.316406 32.1875 -51.671875 C 29.363281 -50.035156 27.128906 -47.722656 25.484375 -44.734375 C 23.847656 -41.753906 23.03125 -38.328125 23.03125 -34.453125 C 23.03125 -30.578125 23.847656 -27.144531 25.484375 -24.15625 C 27.128906 -21.175781 29.363281 -18.863281 32.1875 -17.21875 C 35.007812 -15.582031 38.160156 -14.765625 41.640625 -14.765625 Z M 41.640625 -14.765625 "/></g></g></g><g fill="#ffffff" fill-opacity="1"><g transform="translate(355.664555, 259.447791)"><g><path d="M 72.453125 -68.90625 L 72.453125 0 L 56.40625 0 L 25.984375 -36.71875 L 25.984375 0 L 6.890625 0 L 6.890625 -68.90625 L 22.9375 -68.90625 L 53.359375 -32.1875 L 53.359375 -68.90625 Z M 72.453125 -68.90625 "/></g></g></g></svg>